<mxfile host="65bd71144e">
    <diagram id="TO-09c77LkQ5_pQFum6X" name="Page-1">
        <mxGraphModel dx="1514" dy="1000" grid="1" gridSize="10" guides="1" tooltips="1" connect="1" arrows="1" fold="1" page="1" pageScale="1" pageWidth="850" pageHeight="1100" math="0" shadow="0">
            <root>
                <mxCell id="0"/>
                <mxCell id="1" parent="0"/>
                <mxCell id="2" value="&lt;h1&gt;START&lt;/h1&gt;" style="ellipse;whiteSpace=wrap;html=1;" vertex="1" parent="1">
                    <mxGeometry x="365" y="30" width="120" height="80" as="geometry"/>
                </mxCell>
                <mxCell id="3" value="" style="endArrow=none;html=1;exitX=0.5;exitY=0;exitDx=0;exitDy=0;entryX=0.5;entryY=1;entryDx=0;entryDy=0;" edge="1" parent="1" source="6" target="2">
                    <mxGeometry width="50" height="50" relative="1" as="geometry">
                        <mxPoint x="390" y="160" as="sourcePoint"/>
                        <mxPoint x="440" y="110" as="targetPoint"/>
                    </mxGeometry>
                </mxCell>
                <mxCell id="4" value="Using first command to signinup (database)" style="rounded=0;whiteSpace=wrap;html=1;" vertex="1" parent="1">
                    <mxGeometry x="570" y="170" width="120" height="60" as="geometry"/>
                </mxCell>
                <mxCell id="6" value="Using first command to signin up&amp;nbsp;&lt;br&gt;(DataBase)" style="label;whiteSpace=wrap;html=1;image=img/clipart/Gear_128x128.png" vertex="1" parent="1">
                    <mxGeometry x="355" y="140" width="140" height="60" as="geometry"/>
                </mxCell>
            </root>
        </mxGraphModel>
    </diagram>
</mxfile>